# Export of Scene_01
# from Aaro4130 OBJ Exporter v2.0
mtllib Couch.mtl
g Couch
v 6.864357 0.95 -9.287928
v 7.864357 0.95 -9.287928
v 6.864357 1.629282 -9.287928
v 7.864357 1.629282 -9.287928
v 8.486493 0.95 -9.287927
v 8.48649 0.95 -5.820707
v 8.486493 1.95 -9.287927
v 8.48649 1.95 -5.820707
v 7.864354 0.95 -5.820708
v 6.864355 0.95 -5.820709
v 7.864354 1.629282 -5.820708
v 6.864355 1.629282 -5.820709
v 6.864355 0.95 -5.820709
v 6.864357 0.95 -9.287928
v 6.864355 1.629282 -5.820709
v 6.864357 1.629282 -9.287928
v 6.864357 1.629282 -9.287928
v 7.864357 1.629282 -9.287928
v 6.864355 1.629282 -5.820709
v 7.864354 1.629282 -5.820708
v 6.864355 0.95 -5.820709
v 7.864354 0.95 -5.820708
v 6.864357 0.95 -9.287928
v 7.864357 0.95 -9.287928
v 8.486493 0.95 -9.287927
v 8.48649 0.95 -5.820707
v 8.486493 1.95 -9.287927
v 8.486493 0.95 -9.287927
v 8.48649 0.95 -5.820707
v 8.48649 1.95 -5.820707
v 7.864354 2.257461 -5.820708
v 7.864357 2.257461 -9.287928
v 8.48649 2.257461 -5.820707
v 8.486493 2.257461 -9.287927
v 7.864354 1.629282 -5.820708
v 7.864357 1.629282 -9.287928
v 7.864354 2.257461 -5.820708
v 7.864357 2.257461 -9.287928
v 8.48649 2.257461 -5.820707
v 7.864354 2.257461 -5.820708
v 7.864357 2.257461 -9.287928
v 8.486493 2.257461 -9.287927
v 8.486493 2.257461 -9.287927
v 8.48649 2.257461 -5.820707
vn 4.129531E-07 0 -0.5773503
vn 4.129531E-07 0 -0.5773503
vn 4.129531E-07 0 -0.5773503
vn 4.129531E-07 0 -0.5773503
vn 0.5773503 0 4.129531E-07
vn 0.5773503 0 4.129531E-07
vn 0.5773503 0 4.129531E-07
vn 0.5773503 0 4.129531E-07
vn -4.129531E-07 0 0.5773503
vn -4.129531E-07 0 0.5773503
vn -4.129531E-07 0 0.5773503
vn -4.129531E-07 0 0.5773503
vn -0.5773503 0 -4.129531E-07
vn -0.5773503 0 -4.129531E-07
vn -0.5773503 0 -4.129531E-07
vn -0.5773503 0 -4.129531E-07
vn 0 0.5773503 0
vn 0 0.5773503 0
vn 0 0.5773503 0
vn 0 0.5773503 0
vn 0 -0.5773503 0
vn 0 -0.5773503 0
vn 0 -0.5773503 0
vn 0 -0.5773503 0
vn 0 -0.5773503 0
vn 0 -0.5773503 0
vn 4.129531E-07 0 -0.5773503
vn 4.129531E-07 0 -0.5773503
vn -4.129531E-07 0 0.5773503
vn -4.129531E-07 0 0.5773503
vn 0 0.5773503 0
vn 0 0.5773503 0
vn 0 0.5773503 0
vn 0 0.5773503 0
vn -0.5773503 0 -4.129531E-07
vn -0.5773503 0 -4.129531E-07
vn -0.5773503 0 -4.129531E-07
vn -0.5773503 0 -4.129531E-07
vn -4.129531E-07 0 0.5773503
vn -4.12953E-07 0 0.5773502
vn 4.129531E-07 0 -0.5773503
vn 4.129531E-07 0 -0.5773503
vn 0.5773503 0 4.129531E-07
vn 0.5773503 0 4.129531E-07
vt 0 0
vt -1 0
vt 0 0.6792817
vt -1 0.6792817
vt 2.467219 0
vt -1 0
vt 2.467219 1
vt -1 1
vt 1 0
vt 0 0
vt 1 0.6792817
vt 0 0.6792817
vt 1 0
vt -2.467219 0
vt 1 0.6792817
vt -2.467219 0.6792817
vt 0 2.467219
vt 1 2.467219
vt 0 -1
vt 1 -1
vt 0 -1
vt -1 -1
vt 0 2.467219
vt -1 2.467219
vt -1.622136 2.467219
vt -1.622136 -1
vt -1.622136 1
vt -1.622136 0
vt 1.622136 0
vt 1.622136 1
vt 1 -1
vt 1 2.467219
vt 1.622136 -1
vt 1.622136 2.467219
vt 1 0.6792817
vt -2.467219 0.6792817
vt 1 1.307461
vt -2.467219 1.307461
vt 1.622136 1.307461
vt 1 1.307461
vt -1 1.307461
vt -1.622136 1.307461
vt 2.467219 1.307461
vt -1 1.307461
usemtl Default_Prototype
f 3/3/3 2/2/2 1/1/1
f 3/3/3 4/4/4 2/2/2
f 7/7/7 6/6/6 5/5/5
f 7/7/7 8/8/8 6/6/6
f 11/11/11 10/10/10 9/9/9
f 11/11/11 12/12/12 10/10/10
f 15/15/15 14/14/14 13/13/13
f 15/15/15 16/16/16 14/14/14
f 19/19/19 18/18/18 17/17/17
f 19/19/19 20/20/20 18/18/18
f 23/23/23 22/22/22 21/21/21
f 23/23/23 24/24/24 22/22/22
f 25/25/25 22/22/22 24/24/24
f 25/25/25 26/26/26 22/22/22
f 27/27/27 2/2/2 4/4/4
f 27/27/27 28/28/28 2/2/2
f 29/29/29 11/11/11 9/9/9
f 29/29/29 30/30/30 11/11/11
f 33/33/33 32/32/32 31/31/31
f 33/33/33 34/34/34 32/32/32
f 37/37/37 36/36/36 35/35/35
f 37/37/37 38/38/38 36/36/36
f 39/39/39 11/11/11 30/30/30
f 39/39/39 40/40/40 11/11/11
f 41/41/41 27/27/27 4/4/4
f 41/41/41 42/42/42 27/27/27
f 43/43/43 8/8/8 7/7/7
f 43/43/43 44/44/44 8/8/8
