# Export of Scene_01
# from Aaro4130 OBJ Exporter v2.0
mtllib Stove.mtl
g Stove
v 3.173381 1.002423 0.3977165
v 4.484716 1.002423 0.3977174
v 3.173381 2.109 0.3977165
v 4.484716 2.109 0.3977174
v 4.484716 1.002423 0.3977174
v 4.484715 1.002423 2.125728
v 4.484716 2.109 0.3977174
v 4.484715 2.109 2.125728
v 4.484715 1.002423 2.125728
v 3.17338 1.002423 2.125727
v 4.484715 2.109 2.125728
v 3.17338 2.109 2.125727
v 2.9768 1.109 2.125727
v 2.976802 1.109 0.3977163
v 2.9768 2.109 2.125727
v 2.976802 2.109 0.3977163
v 3.173381 2.109 0.3977165
v 4.484716 2.109 0.3977174
v 3.17338 2.109 2.125727
v 4.484715 2.109 2.125728
v 3.17338 1.002423 2.125727
v 4.484715 1.002423 2.125728
v 3.173381 1.002423 0.3977165
v 4.484716 1.002423 0.3977174
v 3.17338 1.002423 2.125727
v 3.173381 1.002423 0.3977165
v 2.9768 1.109 2.125727
v 2.976802 1.109 0.3977163
v 2.9768 2.109 2.125727
v 2.9768 1.109 2.125727
v 2.976802 1.109 0.3977163
v 2.976802 2.109 0.3977163
v 3.173381 2.380674 0.3977165
v 3.17338 2.380674 2.125727
v 2.976802 2.380674 0.3977163
v 2.9768 2.380674 2.125727
v 3.173381 2.109 0.3977165
v 3.17338 2.109 2.125727
v 3.173381 2.380674 0.3977165
v 3.17338 2.380674 2.125727
v 2.976802 2.380674 0.3977163
v 3.173381 2.380674 0.3977165
v 3.17338 2.380674 2.125727
v 2.9768 2.380674 2.125727
v 2.9768 2.380674 2.125727
v 2.976802 2.380674 0.3977163
vn 4.129531E-07 0 -0.5773503
vn 4.129531E-07 0 -0.5773503
vn 4.129531E-07 0 -0.5773503
vn 4.129531E-07 0 -0.5773503
vn 0.5773503 0 4.129531E-07
vn 0.5773503 0 4.129531E-07
vn 0.5773503 0 4.129531E-07
vn 0.5773503 0 4.129531E-07
vn -4.129531E-07 0 0.5773503
vn -4.129531E-07 0 0.5773503
vn -4.129531E-07 0 0.5773503
vn -4.129531E-07 0 0.5773503
vn -0.5773503 0 -4.129531E-07
vn -0.5773503 0 -4.129531E-07
vn -0.5773503 0 -4.129531E-07
vn -0.5773503 0 -4.129531E-07
vn 0 0.5773503 0
vn 0 0.5773503 0
vn 0 0.5773503 0
vn 0 0.5773503 0
vn 0 -0.5773503 0
vn 0 -0.5773503 0
vn 0 -0.5773503 0
vn 0 -0.5773503 0
vn -0.2751751 -0.5075549 -1.968206E-07
vn -0.2751751 -0.5075549 -1.968206E-07
vn -0.2751751 -0.5075549 -1.968206E-07
vn -0.2751751 -0.5075549 -1.968206E-07
vn -4.129531E-07 0 0.5773503
vn -4.129531E-07 0 0.5773503
vn 4.129531E-07 0 -0.5773503
vn 4.129531E-07 0 -0.5773503
vn 0 0.5773503 0
vn 0 0.5773503 0
vn 0 0.5773503 0
vn 0 0.5773503 0
vn 0.5773502 0 4.12953E-07
vn 0.5773502 0 4.12953E-07
vn 0.5773502 0 4.12953E-07
vn 0.5773502 0 4.12953E-07
vn 4.129531E-07 0 -0.5773503
vn 4.129531E-07 0 -0.5773503
vn -4.129531E-07 0 0.5773503
vn -4.129531E-07 0 0.5773503
vn -0.5773502 0 -4.12953E-07
vn -0.5773502 0 -4.12953E-07
vt 0.1182775 -0.1065774
vt -1.193058 -0.1065774
vt 0.1182775 1
vt -1.193058 1
vt 0.7280104 -0.1065774
vt -1 -0.1065774
vt 0.7280104 1
vt -1 1
vt 1.193058 -0.1065774
vt -0.1182775 -0.1065774
vt 1.193058 1
vt -0.1182775 1
vt 1 0
vt -0.7280104 0
vt 1 1
vt -0.7280104 1
vt -0.1182775 0.7280104
vt 1.193058 0.7280104
vt -0.1182775 -1
vt 1.193058 -1
vt 0.1182775 -1
vt -1.193058 -1
vt 0.1182775 0.7280104
vt -1.193058 0.7280104
vt 0.05318245 -1
vt 0.05318245 0.7280104
vt 0.2767945 -1
vt 0.2767945 0.7280104
vt -0.3148574 1
vt -0.3148574 0
vt 0.3148574 0
vt 0.3148574 1
vt -0.1182775 0.7280104
vt -0.1182775 -1
vt -0.3148574 0.7280104
vt -0.3148574 -1
vt 0.7280104 1
vt -1 1
vt 0.7280104 1.271674
vt -1 1.271674
vt 0.3148574 1.271674
vt 0.1182775 1.271674
vt -0.1182775 1.271674
vt -0.3148574 1.271674
vt 1 1.271674
vt -0.7280104 1.271674
usemtl Default_Prototype
f 3/3/3 2/2/2 1/1/1
f 3/3/3 4/4/4 2/2/2
f 7/7/7 6/6/6 5/5/5
f 7/7/7 8/8/8 6/6/6
f 11/11/11 10/10/10 9/9/9
f 11/11/11 12/12/12 10/10/10
f 15/15/15 14/14/14 13/13/13
f 15/15/15 16/16/16 14/14/14
f 19/19/19 18/18/18 17/17/17
f 19/19/19 20/20/20 18/18/18
f 23/23/23 22/22/22 21/21/21
f 23/23/23 24/24/24 22/22/22
f 27/27/27 26/26/26 25/25/25
f 27/27/27 28/28/28 26/26/26
f 29/29/29 10/10/10 12/12/12
f 29/29/29 30/30/30 10/10/10
f 31/31/31 3/3/3 1/1/1
f 31/31/31 32/32/32 3/3/3
f 35/35/35 34/34/34 33/33/33
f 35/35/35 36/36/36 34/34/34
f 39/39/39 38/38/38 37/37/37
f 39/39/39 40/40/40 38/38/38
f 41/41/41 3/3/3 32/32/32
f 41/41/41 42/42/42 3/3/3
f 43/43/43 29/29/29 12/12/12
f 43/43/43 44/44/44 29/29/29
f 45/45/45 16/16/16 15/15/15
f 45/45/45 46/46/46 16/16/16
