# Export of Scene_01
# from Aaro4130 OBJ Exporter v2.0
mtllib Table.mtl
g Table (1)
v 3.093355 1.82 -6.432702
v 4.093355 1.82 -6.432701
v 3.093355 2.002871 -6.432702
v 4.093355 2.002871 -6.432701
v 4.245455 1.82 -6.280711
v 4.245454 1.82 -5.280711
v 4.245455 2.002871 -6.280711
v 4.245454 2.002871 -5.280711
v 4.093354 1.82 -5.14075
v 3.093354 1.82 -5.14075
v 4.093354 2.002871 -5.14075
v 3.093354 2.002871 -5.14075
v 2.946423 1.82 -5.280712
v 2.946424 1.82 -6.280712
v 2.946423 2.002871 -5.280712
v 2.946424 2.002871 -6.280712
v 3.093355 2.002871 -6.280712
v 4.093355 2.002871 -6.280711
v 3.093354 2.002871 -5.280712
v 4.093354 2.002871 -5.280711
v 3.093354 1.82 -5.280712
v 4.093354 1.82 -5.280711
v 3.093355 1.82 -6.280712
v 4.093355 1.82 -6.280711
v 3.093355 1.82 -6.432702
v 4.093355 1.82 -6.432701
v 2.946424 2.002871 -6.432702
v 2.946424 1.82 -6.432702
v 4.245455 1.82 -6.432701
v 4.245455 2.002871 -6.432701
v 4.093355 2.002871 -6.432701
v 3.093355 2.002871 -6.432702
v 4.093354 1.82 -5.14075
v 3.093354 1.82 -5.14075
v 4.245454 2.002871 -5.14075
v 4.245454 1.82 -5.14075
v 2.946423 1.82 -5.140751
v 2.946423 2.002871 -5.140751
v 3.093354 2.002871 -5.14075
v 4.093354 2.002871 -5.14075
v 4.245454 2.002871 -5.280711
v 4.245455 2.002871 -6.280711
v 4.245454 2.002871 -5.14075
v 4.093354 0.9855683 -5.280711
v 4.093354 0.9855683 -5.14075
v 4.245454 0.9855683 -5.280711
v 4.245454 0.9855683 -5.14075
v 4.245454 1.82 -5.14075
v 4.245454 2.002871 -5.14075
v 4.245455 1.82 -6.280711
v 4.245454 1.82 -5.280711
v 4.093355 0.9855683 -6.432701
v 4.093355 0.9855683 -6.280711
v 4.245455 0.9855683 -6.432701
v 4.245455 0.9855683 -6.280711
v 4.245455 2.002871 -6.432701
v 4.245455 2.002871 -6.432701
v 4.245455 1.82 -6.432701
v 2.946424 2.002871 -6.280712
v 2.946423 2.002871 -5.280712
v 2.946424 2.002871 -6.432702
v 3.093355 0.9855683 -6.280712
v 3.093355 0.9855683 -6.432702
v 2.946424 0.9855683 -6.280712
v 2.946424 0.9855683 -6.432702
v 2.946424 1.82 -6.432702
v 2.946424 2.002871 -6.432702
v 2.946423 1.82 -5.280712
v 2.946424 1.82 -6.280712
v 3.093354 0.9855683 -5.14075
v 3.093354 0.9855683 -5.280712
v 2.946423 0.9855683 -5.140751
v 2.946423 0.9855683 -5.280712
v 2.946423 2.002871 -5.140751
v 2.946423 2.002871 -5.140751
v 2.946423 1.82 -5.140751
v 3.093354 1.82 -5.14075
v 3.093354 1.82 -5.280712
v 3.093354 1.813969 -5.14075
v 3.093354 1.813969 -5.280712
v 2.946423 1.813969 -5.140751
v 3.093354 1.813969 -5.14075
v 3.093354 1.82 -5.280712
v 2.946423 1.82 -5.280712
v 3.093354 1.813969 -5.280712
v 2.946423 1.813969 -5.280712
v 2.946423 1.813969 -5.280712
v 2.946423 1.813969 -5.140751
v 4.093354 1.82 -5.280711
v 4.093354 1.82 -5.14075
v 4.093354 1.813969 -5.280711
v 4.093354 1.813969 -5.14075
v 4.245454 1.82 -5.280711
v 4.093354 1.82 -5.280711
v 4.245454 1.813969 -5.280711
v 4.093354 1.813969 -5.280711
v 4.093354 1.813969 -5.14075
v 4.245454 1.813969 -5.14075
v 4.245454 1.813969 -5.14075
v 4.245454 1.813969 -5.280711
v 4.093355 1.82 -6.432701
v 4.093355 1.82 -6.280711
v 4.093355 1.813969 -6.432701
v 4.093355 1.813969 -6.280711
v 4.245455 1.813969 -6.432701
v 4.093355 1.813969 -6.432701
v 4.093355 1.82 -6.280711
v 4.245455 1.82 -6.280711
v 4.093355 1.813969 -6.280711
v 4.245455 1.813969 -6.280711
v 4.245455 1.813969 -6.280711
v 4.245455 1.813969 -6.432701
v 3.093355 1.82 -6.280712
v 3.093355 1.82 -6.432702
v 3.093355 1.813969 -6.280712
v 3.093355 1.813969 -6.432702
v 2.946424 1.82 -6.280712
v 3.093355 1.82 -6.280712
v 2.946424 1.813969 -6.280712
v 3.093355 1.813969 -6.280712
v 3.093355 1.813969 -6.432702
v 2.946424 1.813969 -6.432702
v 2.946424 1.813969 -6.432702
v 2.946424 1.813969 -6.280712
v 3.093354 0.9855683 -5.14075
v 3.093354 0.9855683 -5.280712
v 2.946423 0.9855683 -5.140751
v 3.093354 0.9855683 -5.14075
v 3.093354 0.9855683 -5.280712
v 2.946423 0.9855683 -5.280712
v 2.946423 0.9855683 -5.280712
v 2.946423 0.9855683 -5.140751
v 4.093354 0.9855683 -5.280711
v 4.093354 0.9855683 -5.14075
v 4.245454 0.9855683 -5.280711
v 4.093354 0.9855683 -5.280711
v 4.093354 0.9855683 -5.14075
v 4.245454 0.9855683 -5.14075
v 4.245454 0.9855683 -5.14075
v 4.245454 0.9855683 -5.280711
v 4.093355 0.9855683 -6.432701
v 4.093355 0.9855683 -6.280711
v 4.245455 0.9855683 -6.432701
v 4.093355 0.9855683 -6.432701
v 4.093355 0.9855683 -6.280711
v 4.245455 0.9855683 -6.280711
v 4.245455 0.9855683 -6.280711
v 4.245455 0.9855683 -6.432701
v 3.093355 0.9855683 -6.280712
v 3.093355 0.9855683 -6.432702
v 2.946424 0.9855683 -6.280712
v 3.093355 0.9855683 -6.280712
v 3.093355 0.9855683 -6.432702
v 2.946424 0.9855683 -6.432702
v 2.946424 0.9855683 -6.432702
v 2.946424 0.9855683 -6.280712
vn 4.12953E-07 0 -0.5773502
vn 4.12953E-07 0 -0.5773502
vn 4.12953E-07 0 -0.5773502
vn 4.12953E-07 0 -0.5773502
vn 0.5773502 0 4.12953E-07
vn 0.5773502 0 4.12953E-07
vn 0.5773502 0 4.12953E-07
vn 0.5773502 0 4.12953E-07
vn -4.12953E-07 0 0.5773502
vn -4.12953E-07 0 0.5773502
vn -4.12953E-07 0 0.5773502
vn -4.12953E-07 0 0.5773502
vn -0.5773502 0 -4.12953E-07
vn -0.5773502 0 -4.12953E-07
vn -0.5773502 0 -4.12953E-07
vn -0.5773502 0 -4.12953E-07
vn 0 0.5773503 0
vn 0 0.5773503 0
vn 0 0.5773503 0
vn 0 0.5773503 0
vn 0 -0.5773503 0
vn 0 -0.5773503 0
vn 0 -0.5773503 0
vn 0 -0.5773503 0
vn 0 -0.5773503 0
vn 0 -0.5773503 0
vn -0.5773502 0 -4.12953E-07
vn -0.5773502 0 -4.12953E-07
vn 0.5773502 0 4.12953E-07
vn 0.5773502 0 4.12953E-07
vn 0 0.5773503 0
vn 0 0.5773503 0
vn 0 -0.5773503 0
vn 0 -0.5773503 0
vn 0.5773503 0 4.129531E-07
vn 0.5773503 0 4.129531E-07
vn -0.5773503 0 -4.129531E-07
vn -0.5773503 0 -4.129531E-07
vn 0 0.5773503 0
vn 0 0.5773503 0
vn 0 0.5773503 0
vn 0 0.5773503 0
vn 0 0.5773503 0
vn 0 -0.5773503 0
vn 0 -0.5773503 0
vn 0 -0.5773503 0
vn 0 -0.5773503 0
vn -4.129531E-07 0 0.5773503
vn -4.129531E-07 0 0.5773503
vn 0 -0.5773503 0
vn 0 -0.5773503 0
vn 0 -0.5773503 0
vn 0 -0.5773503 0
vn 0 -0.5773503 0
vn 0 -0.5773503 0
vn 0 0.5773503 0
vn 4.129531E-07 0 -0.5773503
vn 4.129531E-07 0 -0.5773503
vn 0 0.5773503 0
vn 0 0.5773503 0
vn 0 0.5773503 0
vn 0 -0.5773503 0
vn 0 -0.5773503 0
vn 0 -0.5773503 0
vn 0 -0.5773503 0
vn 4.129531E-07 0 -0.5773503
vn 4.129531E-07 0 -0.5773503
vn 0 -0.5773503 0
vn 0 -0.5773503 0
vn 0 -0.5773503 0
vn 0 -0.5773503 0
vn 0 -0.5773503 0
vn 0 -0.5773503 0
vn 0 0.5773503 0
vn -4.129531E-07 0 0.5773503
vn -4.129531E-07 0 0.5773503
vn 0.5773502 0 4.12953E-07
vn 0.5773502 0 4.12953E-07
vn 0.5773502 0 4.12953E-07
vn 0.5773502 0 4.12953E-07
vn -4.129531E-07 0 0.5773503
vn -4.129531E-07 0 0.5773503
vn 4.129531E-07 0 -0.5773503
vn 4.129531E-07 0 -0.5773503
vn 4.129531E-07 0 -0.5773503
vn 4.129531E-07 0 -0.5773503
vn -0.5773502 0 -4.12953E-07
vn -0.5773502 0 -4.12953E-07
vn -0.5773502 0 -4.12953E-07
vn -0.5773502 0 -4.12953E-07
vn -0.5773502 0 -4.12953E-07
vn -0.5773502 0 -4.12953E-07
vn 4.129531E-07 0 -0.5773503
vn 4.129531E-07 0 -0.5773503
vn 4.129531E-07 0 -0.5773503
vn 4.129531E-07 0 -0.5773503
vn -4.129531E-07 0 0.5773503
vn -4.129531E-07 0 0.5773503
vn 0.5773502 0 4.12953E-07
vn 0.5773502 0 4.12953E-07
vn -0.5773503 0 -4.129531E-07
vn -0.5773503 0 -4.129531E-07
vn -0.5773503 0 -4.129531E-07
vn -0.5773503 0 -4.129531E-07
vn 4.129531E-07 0 -0.5773503
vn 4.129531E-07 0 -0.5773503
vn -4.129531E-07 0 0.5773503
vn -4.129531E-07 0 0.5773503
vn -4.129531E-07 0 0.5773503
vn -4.129531E-07 0 0.5773503
vn 0.5773503 0 4.129531E-07
vn 0.5773503 0 4.129531E-07
vn 0.5773503 0 4.129531E-07
vn 0.5773503 0 4.129531E-07
vn 0.5773503 0 4.129531E-07
vn 0.5773503 0 4.129531E-07
vn -4.129531E-07 0 0.5773503
vn -4.129531E-07 0 0.5773503
vn -4.129531E-07 0 0.5773503
vn -4.129531E-07 0 0.5773503
vn 4.129531E-07 0 -0.5773503
vn 4.129531E-07 0 -0.5773503
vn -0.5773503 0 -4.129531E-07
vn -0.5773503 0 -4.129531E-07
vn 0.5773503 0 4.129531E-07
vn 0.5773503 0 4.129531E-07
vn -4.12953E-07 0 0.5773502
vn -4.12953E-07 0 0.5773502
vn 4.12953E-07 0 -0.5773502
vn 4.12953E-07 0 -0.5773502
vn -0.5773503 0 -4.129531E-07
vn -0.5773503 0 -4.129531E-07
vn -0.5773503 0 -4.129531E-07
vn -0.5773503 0 -4.129531E-07
vn 4.129531E-07 0 -0.5773503
vn 4.129531E-07 0 -0.5773503
vn -4.129531E-07 0 0.5773503
vn -4.129531E-07 0 0.5773503
vn 0.5773503 0 4.129531E-07
vn 0.5773503 0 4.129531E-07
vn -0.5773503 0 -4.129531E-07
vn -0.5773503 0 -4.129531E-07
vn 4.129531E-07 0 -0.5773503
vn 4.129531E-07 0 -0.5773503
vn -4.129531E-07 0 0.5773503
vn -4.129531E-07 0 0.5773503
vn 0.5773503 0 4.129531E-07
vn 0.5773503 0 4.129531E-07
vn 0.5773503 0 4.129531E-07
vn 0.5773503 0 4.129531E-07
vn -4.12953E-07 0 0.5773502
vn -4.12953E-07 0 0.5773502
vn 4.12953E-07 0 -0.5773502
vn 4.12953E-07 0 -0.5773502
vn -0.5773503 0 -4.129531E-07
vn -0.5773503 0 -4.129531E-07
vt 0 0
vt -1 0
vt 0 0.1828711
vt -1 0.1828711
vt 0 0
vt -1 0
vt 0 0.1828711
vt -1 0.1828711
vt 1 0
vt 0 0
vt 1 0.1828711
vt 0 0.1828711
vt 1 0
vt 0 0
vt 1 0.1828711
vt 0 0.1828711
vt 0 0
vt 1 0
vt 0 -1
vt 1 -1
vt 0 -1
vt -1 -1
vt 0 0
vt -1 0
vt 0 0.1519898
vt -1 0.1519898
vt -0.1519898 0.1828711
vt -0.1519898 0
vt 0.1519898 0
vt 0.1519898 0.1828711
vt 1 0.1519898
vt 0 0.1519898
vt -1 -1.139961
vt 0 -1.139961
vt -1.139961 0.1828711
vt -1.139961 0
vt 1.139961 0
vt 1.139961 0.1828711
vt 0 -1.139961
vt 1 -1.139961
vt 1.152099 -1
vt 1.152099 0
vt 1.152099 -1.139961
vt -1 -1
vt -1 -1.139961
vt -1.152099 -1
vt -1.152099 -1.139961
vt 1.152099 0
vt 1.152099 0.1828711
vt -1.152099 0
vt -1.152099 -1
vt -1 0.1519898
vt -1 0
vt -1.152099 0.1519898
vt -1.152099 0
vt 1.152099 0.1519898
vt -1.152099 0.1828711
vt -1.152099 0
vt -0.1469315 0
vt -0.1469315 -1
vt -0.1469315 0.1519898
vt 0 0
vt 0 0.1519898
vt 0.1469315 0
vt 0.1469315 0.1519898
vt 0.1469315 0
vt 0.1469315 0.1828711
vt 0.1469315 -1
vt 0.1469315 0
vt 0 -1.139961
vt 0 -1
vt 0.1469315 -1.139961
vt 0.1469315 -1
vt -0.1469315 -1.139961
vt -0.1469315 0.1828711
vt -0.1469315 0
vt -1.139961 0
vt -1 0
vt -1.139961 -0.006031377
vt -1 -0.006031377
vt -0.1469315 -0.006031377
vt 0 -0.006031377
vt 0 0
vt 0.1469315 0
vt 0 -0.006031377
vt 0.1469315 -0.006031377
vt 1 -0.006031377
vt 1.139961 -0.006031377
vt 1 0
vt 1.139961 0
vt 1 -0.006031377
vt 1.139961 -0.006031377
vt -1.152099 0
vt -1 0
vt -1.152099 -0.006031377
vt -1 -0.006031377
vt 1 -0.006031377
vt 1.152099 -0.006031377
vt -1.139961 -0.006031377
vt -1 -0.006031377
vt -0.1519898 0
vt 0 0
vt -0.1519898 -0.006031377
vt 0 -0.006031377
vt -1.152099 -0.006031377
vt -1 -0.006031377
vt 1 0
vt 1.152099 0
vt 1 -0.006031377
vt 1.152099 -0.006031377
vt 0 -0.006031377
vt 0.1519898 -0.006031377
vt 0 0
vt 0.1519898 0
vt 0 -0.006031377
vt 0.1519898 -0.006031377
vt -0.1469315 0
vt 0 0
vt -0.1469315 -0.006031377
vt 0 -0.006031377
vt 0 -0.006031377
vt 0.1469315 -0.006031377
vt -0.1519898 -0.006031377
vt 0 -0.006031377
vt -1.139961 -0.8344318
vt -1 -0.8344318
vt -0.1469315 -0.8344318
vt 0 -0.8344318
vt 0 -0.8344318
vt 0.1469315 -0.8344318
vt 1 -0.8344318
vt 1.139961 -0.8344318
vt 1 -0.8344318
vt 1.139961 -0.8344318
vt -1.152099 -0.8344318
vt -1 -0.8344318
vt 1 -0.8344318
vt 1.152099 -0.8344318
vt -1.139961 -0.8344318
vt -1 -0.8344318
vt -0.1519898 -0.8344318
vt 0 -0.8344318
vt -1.152099 -0.8344318
vt -1 -0.8344318
vt 1 -0.8344318
vt 1.152099 -0.8344318
vt 0 -0.8344318
vt 0.1519898 -0.8344318
vt 0 -0.8344318
vt 0.1519898 -0.8344318
vt -0.1469315 -0.8344318
vt 0 -0.8344318
vt 0 -0.8344318
vt 0.1469315 -0.8344318
vt -0.1519898 -0.8344318
vt 0 -0.8344318
usemtl Default_Prototype
f 3/3/3 2/2/2 1/1/1
f 3/3/3 4/4/4 2/2/2
f 7/7/7 6/6/6 5/5/5
f 7/7/7 8/8/8 6/6/6
f 11/11/11 10/10/10 9/9/9
f 11/11/11 12/12/12 10/10/10
f 15/15/15 14/14/14 13/13/13
f 15/15/15 16/16/16 14/14/14
f 19/19/19 18/18/18 17/17/17
f 19/19/19 20/20/20 18/18/18
f 23/23/23 22/22/22 21/21/21
f 23/23/23 24/24/24 22/22/22
f 25/25/25 24/24/24 23/23/23
f 25/25/25 26/26/26 24/24/24
f 27/27/27 14/14/14 16/16/16
f 27/27/27 28/28/28 14/14/14
f 29/29/29 7/7/7 5/5/5
f 29/29/29 30/30/30 7/7/7
f 31/31/31 17/17/17 18/18/18
f 31/31/31 32/32/32 17/17/17
f 33/33/33 21/21/21 22/22/22
f 33/33/33 34/34/34 21/21/21
f 35/35/35 6/6/6 8/8/8
f 35/35/35 36/36/36 6/6/6
f 37/37/37 15/15/15 13/13/13
f 37/37/37 38/38/38 15/15/15
f 39/39/39 20/20/20 19/19/19
f 39/39/39 40/40/40 20/20/20
f 41/41/41 18/18/18 20/20/20
f 41/41/41 42/42/42 18/18/18
f 43/43/43 20/20/20 40/40/40
f 43/43/43 41/41/41 20/20/20
f 46/46/46 45/45/45 44/44/44
f 46/46/46 47/47/47 45/45/45
f 48/48/48 11/11/11 9/9/9
f 48/48/48 49/49/49 11/11/11
f 50/50/50 22/22/22 24/24/24
f 50/50/50 51/51/51 22/22/22
f 54/54/54 53/53/53 52/52/52
f 54/54/54 55/55/55 53/53/53
f 42/42/42 31/31/31 18/18/18
f 42/42/42 56/56/56 31/31/31
f 57/57/57 2/2/2 4/4/4
f 57/57/57 58/58/58 2/2/2
f 59/59/59 19/19/19 17/17/17
f 59/59/59 60/60/60 19/19/19
f 61/61/61 17/17/17 32/32/32
f 61/61/61 59/59/59 17/17/17
f 64/64/64 63/63/63 62/62/62
f 64/64/64 65/65/65 63/63/63
f 66/66/66 3/3/3 1/1/1
f 66/66/66 67/67/67 3/3/3
f 68/68/68 23/23/23 21/21/21
f 68/68/68 69/69/69 23/23/23
f 72/72/72 71/71/71 70/70/70
f 72/72/72 73/73/73 71/71/71
f 60/60/60 39/39/39 19/19/19
f 60/60/60 74/74/74 39/39/39
f 75/75/75 10/10/10 12/12/12
f 75/75/75 76/76/76 10/10/10
f 79/79/79 78/78/78 77/77/77
f 79/79/79 80/80/80 78/78/78
f 81/81/81 10/10/10 76/76/76
f 81/81/81 82/82/82 10/10/10
f 85/85/85 84/84/84 83/83/83
f 85/85/85 86/86/86 84/84/84
f 87/87/87 37/37/37 13/13/13
f 87/87/87 88/88/88 37/37/37
f 91/91/91 90/90/90 89/89/89
f 91/91/91 92/92/92 90/90/90
f 95/95/95 94/94/94 93/93/93
f 95/95/95 96/96/96 94/94/94
f 97/97/97 48/48/48 9/9/9
f 97/97/97 98/98/98 48/48/48
f 99/99/99 6/6/6 36/36/36
f 99/99/99 100/100/100 6/6/6
f 103/103/103 102/102/102 101/101/101
f 103/103/103 104/104/104 102/102/102
f 105/105/105 2/2/2 58/58/58
f 105/105/105 106/106/106 2/2/2
f 109/109/109 108/108/108 107/107/107
f 109/109/109 110/110/110 108/108/108
f 111/111/111 29/29/29 5/5/5
f 111/111/111 112/112/112 29/29/29
f 115/115/115 114/114/114 113/113/113
f 115/115/115 116/116/116 114/114/114
f 119/119/119 118/118/118 117/117/117
f 119/119/119 120/120/120 118/118/118
f 121/121/121 66/66/66 1/1/1
f 121/121/121 122/122/122 66/66/66
f 123/123/123 14/14/14 28/28/28
f 123/123/123 124/124/124 14/14/14
f 125/125/125 80/80/80 79/79/79
f 125/125/125 126/126/126 80/80/80
f 127/127/127 82/82/82 81/81/81
f 127/127/127 128/128/128 82/82/82
f 129/129/129 86/86/86 85/85/85
f 129/129/129 130/130/130 86/86/86
f 131/131/131 88/88/88 87/87/87
f 131/131/131 132/132/132 88/88/88
f 133/133/133 92/92/92 91/91/91
f 133/133/133 134/134/134 92/92/92
f 135/135/135 96/96/96 95/95/95
f 135/135/135 136/136/136 96/96/96
f 137/137/137 98/98/98 97/97/97
f 137/137/137 138/138/138 98/98/98
f 139/139/139 100/100/100 99/99/99
f 139/139/139 140/140/140 100/100/100
f 141/141/141 104/104/104 103/103/103
f 141/141/141 142/142/142 104/104/104
f 143/143/143 106/106/106 105/105/105
f 143/143/143 144/144/144 106/106/106
f 145/145/145 110/110/110 109/109/109
f 145/145/145 146/146/146 110/110/110
f 147/147/147 112/112/112 111/111/111
f 147/147/147 148/148/148 112/112/112
f 149/149/149 116/116/116 115/115/115
f 149/149/149 150/150/150 116/116/116
f 151/151/151 120/120/120 119/119/119
f 151/151/151 152/152/152 120/120/120
f 153/153/153 122/122/122 121/121/121
f 153/153/153 154/154/154 122/122/122
f 155/155/155 124/124/124 123/123/123
f 155/155/155 156/156/156 124/124/124
