# Export of Scene_01
# from Aaro4130 OBJ Exporter v2.0
mtllib Toaster.mtl
g Toaster
v 7.914197 2.152 7.625978
v 8.767345 2.152 7.625978
v 7.914197 2.648896 7.625978
v 8.767345 2.648896 7.625978
v 8.767345 2.152 7.625978
v 8.767344 2.152 8.033293
v 8.767345 2.648896 7.625978
v 8.767344 2.648896 8.033293
v 8.767344 2.152 8.033293
v 7.914197 2.152 8.033292
v 8.767344 2.648896 8.033293
v 7.914197 2.648896 8.033292
v 7.914197 2.152 8.033292
v 7.914197 2.152 7.625978
v 7.914197 2.648896 8.033292
v 7.914197 2.648896 7.625978
v 7.914197 2.648896 7.625978
v 8.767345 2.648896 7.625978
v 7.914197 2.648896 8.033292
v 8.767344 2.648896 8.033293
v 7.914197 2.152 8.033292
v 8.767344 2.152 8.033293
v 7.914197 2.152 7.625978
v 8.767345 2.152 7.625978
vn 4.129531E-07 0 -0.5773503
vn 4.129531E-07 0 -0.5773503
vn 4.129531E-07 0 -0.5773503
vn 4.129531E-07 0 -0.5773503
vn 0.5773503 0 4.129531E-07
vn 0.5773503 0 4.129531E-07
vn 0.5773503 0 4.129531E-07
vn 0.5773503 0 4.129531E-07
vn -4.129531E-07 0 0.5773503
vn -4.129531E-07 0 0.5773503
vn -4.129531E-07 0 0.5773503
vn -4.129531E-07 0 0.5773503
vn -0.5773503 0 -4.129531E-07
vn -0.5773503 0 -4.129531E-07
vn -0.5773503 0 -4.129531E-07
vn -0.5773503 0 -4.129531E-07
vn 0 0.5773503 0
vn 0 0.5773503 0
vn 0 0.5773503 0
vn 0 0.5773503 0
vn 0 -0.5773503 0
vn 0 -0.5773503 0
vn 0 -0.5773503 0
vn 0 -0.5773503 0
vt -0.146852 0
vt -1 0
vt -0.146852 0.4968963
vt -1 0.4968963
vt -0.5926855 0
vt -1 0
vt -0.5926855 0.4968963
vt -1 0.4968963
vt 1 0
vt 0.146852 0
vt 1 0.4968963
vt 0.146852 0.4968963
vt 1 0
vt 0.5926855 0
vt 1 0.4968963
vt 0.5926855 0.4968963
vt 0.146852 -0.5926855
vt 1 -0.5926855
vt 0.146852 -1
vt 1 -1
vt -0.146852 -1
vt -1 -1
vt -0.146852 -0.5926855
vt -1 -0.5926855
usemtl Default_Prototype
f 3/3/3 2/2/2 1/1/1
f 3/3/3 4/4/4 2/2/2
f 7/7/7 6/6/6 5/5/5
f 7/7/7 8/8/8 6/6/6
f 11/11/11 10/10/10 9/9/9
f 11/11/11 12/12/12 10/10/10
f 15/15/15 14/14/14 13/13/13
f 15/15/15 16/16/16 14/14/14
f 19/19/19 18/18/18 17/17/17
f 19/19/19 20/20/20 18/18/18
f 23/23/23 22/22/22 21/21/21
f 23/23/23 24/24/24 22/22/22
