# Export of Scene_01
# from Aaro4130 OBJ Exporter v2.0
mtllib TV Cabinet.mtl
g TV (Table)
v 3.130578 0.976 -8.452785
v 4.277357 0.976 -8.452784
v 3.130578 1.976 -8.452785
v 4.277357 1.976 -8.452784
v 4.277357 0.976 -8.452784
v 4.277356 0.976 -6.918808
v 4.277357 1.976 -8.452784
v 4.277356 1.976 -6.918808
v 4.277356 0.976 -6.918808
v 3.130577 0.976 -6.918809
v 4.277356 1.976 -6.918808
v 3.130577 1.976 -6.918809
v 3.130577 0.976 -6.918809
v 3.130578 0.976 -8.452785
v 3.130577 1.976 -6.918809
v 3.130578 1.976 -8.452785
v 3.130578 1.976 -8.452785
v 4.277357 1.976 -8.452784
v 3.130577 1.976 -6.918809
v 4.277356 1.976 -6.918808
v 3.130577 0.976 -6.918809
v 4.277356 0.976 -6.918808
v 3.130578 0.976 -8.452785
v 4.277357 0.976 -8.452784
vn 4.129531E-07 0 -0.5773503
vn 4.129531E-07 0 -0.5773503
vn 4.129531E-07 0 -0.5773503
vn 4.129531E-07 0 -0.5773503
vn 0.5773502 0 4.12953E-07
vn 0.5773502 0 4.12953E-07
vn 0.5773502 0 4.12953E-07
vn 0.5773502 0 4.12953E-07
vn -4.129531E-07 0 0.5773503
vn -4.129531E-07 0 0.5773503
vn -4.129531E-07 0 0.5773503
vn -4.129531E-07 0 0.5773503
vn -0.5773502 0 -4.12953E-07
vn -0.5773502 0 -4.12953E-07
vn -0.5773502 0 -4.12953E-07
vn -0.5773502 0 -4.12953E-07
vn 0 0.5773503 0
vn 0 0.5773503 0
vn 0 0.5773503 0
vn 0 0.5773503 0
vn 0 -0.5773503 0
vn 0 -0.5773503 0
vn 0 -0.5773503 0
vn 0 -0.5773503 0
vt 0.6467791 0
vt -0.5 0
vt 0.6467791 1
vt -0.5 1
vt 0.7520733 0
vt -0.7819023 0
vt 0.7520733 1
vt -0.7819023 1
vt 0.5 0
vt -0.6467791 0
vt 0.5 1
vt -0.6467791 1
vt 0.7819023 0
vt -0.7520733 0
vt 0.7819023 1
vt -0.7520733 1
vt -0.6467791 0.7520733
vt 0.5 0.7520733
vt -0.6467791 -0.7819023
vt 0.5 -0.7819023
vt 0.6467791 -0.7819023
vt -0.5 -0.7819023
vt 0.6467791 0.7520733
vt -0.5 0.7520733
usemtl Default_Prototype
f 3/3/3 2/2/2 1/1/1
f 3/3/3 4/4/4 2/2/2
f 7/7/7 6/6/6 5/5/5
f 7/7/7 8/8/8 6/6/6
f 11/11/11 10/10/10 9/9/9
f 11/11/11 12/12/12 10/10/10
f 15/15/15 14/14/14 13/13/13
f 15/15/15 16/16/16 14/14/14
f 19/19/19 18/18/18 17/17/17
f 19/19/19 20/20/20 18/18/18
f 23/23/23 22/22/22 21/21/21
f 23/23/23 24/24/24 22/22/22
